<?xml version="1.0" standalone="no"?><!DOCTYPE svg PUBLIC "-//W3C//DTD SVG 1.1//EN" "http://www.w3.org/Graphics/SVG/1.1/DTD/svg11.dtd"><svg width="16" height="16" viewBox="0 0 16 16" version="1.1" xmlns="http://www.w3.org/2000/svg" xmlns:xlink="http://www.w3.org/1999/xlink"><defs><style type="text/css"><![CDATA[
@font-face { font-family: ifont; src: url("//at.alicdn.com/t/font_1442373896_4754455.eot?#iefix") format("embedded-opentype"), url("//at.alicdn.com/t/font_1442373896_4754455.woff") format("woff"), url("//at.alicdn.com/t/font_1442373896_4754455.ttf") format("truetype"), url("//at.alicdn.com/t/font_1442373896_4754455.svg#ifont") format("svg"); }

]]></style></defs><g class="transform-group"><g transform="scale(0.015625, 0.015625)"><path d="M512 307.2 716.8 307.2 716.8 102.4C716.8 76.8 696.32 51.2 665.6 51.2L102.4 51.2C71.68 51.2 51.2 71.68 51.2 102.4L51.2 512C51.2 537.6 71.68 563.2 102.4 563.2L153.6 563.2 153.6 716.8 307.2 563.2 409.6 563.2 409.6 409.6C409.6 368.64 471.04 307.2 512 307.2ZM921.6 358.4 512 358.4C486.4 358.4 460.8 378.88 460.8 409.6L460.8 716.8C460.8 742.4 481.28 768 512 768L716.8 768 870.4 921.6 870.4 768 921.6 768C947.2 768 972.8 747.52 972.8 716.8L972.8 409.6C972.8 378.88 952.32 358.4 921.6 358.4L921.6 358.4Z" fill="#56abe4"></path></g></g></svg>